<svg width="18" height="15" viewBox="0 0 18 15" fill="none" xmlns="http://www.w3.org/2000/svg">
<path d="M15.3386 6.34324C15.6618 6.34324 15.9741 6.28995 16.268 6.19521L15.5516 8.77087C15.4635 9.08863 15.1384 9.34718 14.828 9.34718H7.0751C6.76653 9.34718 6.43959 9.08666 6.34959 8.77087L4.5349 2.39389C4.4449 2.0781 4.62306 1.81758 4.93347 1.81758H12.2712C12.172 2.1531 12.1151 2.50837 12.1151 2.87942C12.1151 4.79192 13.5588 6.34324 15.3386 6.34324ZM15.5314 10.0656H6.44143C6.03 10.0893 5.73796 9.25047 5.73796 9.25047L3.43837 1.20771C3.40714 0.860341 3.13531 0.593894 2.8102 0.593894H0.631837C0.282857 0.593894 0 0.895868 0 1.27087C0 1.64587 0.282857 1.94982 0.631837 1.94982H2.23714L4.48163 9.35311C4.69469 10.1603 4.95367 10.7051 5.32469 11.0347L5.05469 11.6288C4.81041 12.0511 4.68735 12.3728 4.68184 12.7024C4.68 12.8682 4.72408 13.0439 4.81224 13.1801C4.94816 13.3873 5.13918 13.4722 5.28245 13.5117C5.43122 13.5511 5.55796 13.5531 5.6498 13.5531H6.08694C6.10163 13.2156 6.20816 12.9057 6.37898 12.6492H5.64796C5.60388 12.6511 5.5598 12.6472 5.52673 12.6413C5.54694 12.5485 5.6149 12.3571 5.77653 12.0867L5.78939 12.0649L6.09612 11.3939C6.20449 11.4117 6.31837 11.4215 6.44143 11.4215H15.5314C15.8786 11.4215 16.1614 11.1196 16.1614 10.7446C16.1614 10.3715 15.8786 10.0656 15.5314 10.0656ZM7.64082 12.2742C6.94469 12.2742 6.38082 12.8801 6.38082 13.6281C6.38082 14.3742 6.94469 14.9821 7.64082 14.9821C8.33694 14.9821 8.89898 14.3761 8.89898 13.6281C8.90082 12.8801 8.33694 12.2742 7.64082 12.2742ZM14.0235 12.2742C13.3273 12.2742 12.7653 12.8801 12.7653 13.6281C12.7653 14.3742 13.3273 14.9821 14.0235 14.9821C14.7196 14.9821 15.2816 14.3761 15.2816 13.6281C15.2816 12.8801 14.7196 12.2742 14.0235 12.2742ZM9.19469 13.5531H12.4678C12.4824 13.2156 12.589 12.9057 12.7616 12.6492H8.90265C9.07347 12.9057 9.18184 13.2156 9.19469 13.5531ZM15.7408 12.6492H15.2835C15.4561 12.9057 15.5627 13.2156 15.5773 13.5531H15.7408C15.9741 13.5531 16.1614 13.3498 16.1614 13.1011C16.1614 12.8524 15.9741 12.6492 15.7408 12.6492ZM18 2.87942C18 4.45837 16.8098 5.74126 15.3386 5.74126C13.8673 5.74126 12.6753 4.45837 12.6753 2.87942C12.6753 1.2985 13.8673 0.0175781 15.3386 0.0175781C16.8098 0.0175781 18 1.2985 18 2.87942ZM16.9402 1.87876L16.6261 1.51955L14.9382 3.00968L14.1667 2.39784L13.8545 2.75705L14.8078 3.94718L14.9749 4.15837L15.1494 3.95508L16.9402 1.87876Z" fill="#F4A72A"/>
</svg>
