<svg width="22" height="17" viewBox="0 0 22 17" fill="none" xmlns="http://www.w3.org/2000/svg">
<path d="M14.8292 3.08105V0.950373C14.8285 0.425262 14.4163 0.000634432 13.9067 -0.000121117H7.80461C7.29568 0.000634432 6.88355 0.425262 6.88281 0.950373V3.08105H8.12434V1.27979H13.5877V3.08105H14.8292Z" fill="white"/>
<path d="M21.701 3.94071C21.6321 3.45564 21.2302 3.08089 20.7396 3.08089H14.8319H13.5904H11.2122H10.7318H8.12702H6.8855H0.978492C0.484225 3.08089 0.0808917 3.46018 0.015625 3.94978L9.35023 10.2148V10.0207H12.3672V10.1544L21.701 3.94071Z" fill="white"/>
<path d="M0 4.3215V15.4924C0 16.0485 0.437062 16.498 0.976062 16.498H20.7372C21.2762 16.498 21.7125 16.0485 21.7125 15.4924V4.31169L12.3647 10.5352V12.3667H9.3478V10.5964L0 4.3215Z" fill="white"/>
</svg>
