<svg width="22" height="17" viewBox="0 0 22 17" fill="none" xmlns="http://www.w3.org/2000/svg">
<mask id="path-1-inside-1_1996_103378" fill="white">
<path d="M14.8292 3.08105V0.950373C14.8285 0.425262 14.4163 0.000634432 13.9067 -0.000121117H7.80461C7.29568 0.000634432 6.88355 0.425262 6.88281 0.950373V3.08105H8.12434V1.27979H13.5877V3.08105H14.8292Z"/>
</mask>
<path d="M14.8292 0.950373L15.8292 0.948977V0.950373H14.8292ZM13.9067 -0.000121117V-1.00012L13.9082 -1.00012L13.9067 -0.000121117ZM7.80461 -0.000121117L7.80312 -1.00012H7.80461V-0.000121117ZM6.88281 0.950373H5.88281L5.88281 0.948977L6.88281 0.950373ZM6.88281 3.08105V4.08105H5.88281V3.08105H6.88281ZM8.12434 3.08105H9.12434V4.08105H8.12434V3.08105ZM8.12434 1.27979H7.12434V0.279785H8.12434V1.27979ZM13.5877 1.27979V0.279785H14.5877V1.27979H13.5877ZM13.5877 3.08105V4.08105H12.5877V3.08105H13.5877ZM13.8292 3.08105V0.950373H15.8292V3.08105H13.8292ZM13.8292 0.95177C13.8292 0.951572 13.8292 0.952519 13.8296 0.954326C13.8299 0.956083 13.8305 0.958191 13.8315 0.960494C13.8333 0.964931 13.8363 0.969903 13.8412 0.974963C13.8461 0.980039 13.8541 0.986299 13.8659 0.991468C13.8785 0.996966 13.8926 0.999859 13.9052 0.999878L13.9082 -1.00012C14.9968 -0.998506 15.8277 -0.0990536 15.8292 0.948977L13.8292 0.95177ZM13.9067 0.999879H7.80461V-1.00012H13.9067V0.999879ZM7.80609 0.999878C7.8191 0.999858 7.83338 0.996881 7.84609 0.991331C7.85805 0.986111 7.86601 0.979816 7.87091 0.974766C7.8758 0.969728 7.87878 0.964799 7.88058 0.960413C7.88151 0.958134 7.88211 0.956046 7.88246 0.954304C7.88282 0.952511 7.88281 0.951572 7.88281 0.95177L5.88281 0.948977C5.88428 -0.0985289 6.7147 -0.998504 7.80312 -1.00012L7.80609 0.999878ZM7.88281 0.950373V3.08105H5.88281V0.950373H7.88281ZM6.88281 2.08105H8.12434V4.08105H6.88281V2.08105ZM7.12434 3.08105V1.27979H9.12434V3.08105H7.12434ZM8.12434 0.279785H13.5877V2.27979H8.12434V0.279785ZM14.5877 1.27979V3.08105H12.5877V1.27979H14.5877ZM13.5877 2.08105H14.8292V4.08105H13.5877V2.08105Z" fill="white" mask="url(#path-1-inside-1_1996_103378)"/>
<mask id="path-3-inside-2_1996_103378" fill="white">
<path d="M21.6991 3.94071C21.6301 3.45564 21.2283 3.08089 20.7377 3.08089H14.8299H13.5884H11.2102H10.7299H8.12507H6.88354H0.976539C0.482272 3.08089 0.0789385 3.46018 0.0136719 3.94978L9.34827 10.2148V10.0207H12.3652V10.1544L21.6991 3.94071Z"/>
</mask>
<path d="M0.0136719 3.94978L-0.543612 4.78011L-1.05969 4.43373L-0.97756 3.81765L0.0136719 3.94978ZM9.34827 10.2148H10.3483V12.0904L8.79099 11.0452L9.34827 10.2148ZM9.34827 10.0207H8.34827V9.02068H9.34827V10.0207ZM12.3652 10.0207V9.02068H13.3652V10.0207H12.3652ZM12.3652 10.1544L12.9194 10.9868L11.3652 12.0214V10.1544H12.3652ZM20.709 4.08141C20.7077 4.07197 20.7039 4.0689 20.7053 4.07014C20.7063 4.0711 20.7099 4.07396 20.7166 4.07665C20.724 4.07958 20.7318 4.08089 20.7377 4.08089V2.08089C21.7629 2.08089 22.5554 2.85925 22.6891 3.80001L20.709 4.08141ZM20.7377 4.08089H14.8299V2.08089H20.7377V4.08089ZM14.8299 4.08089H13.5884V2.08089H14.8299V4.08089ZM13.5884 4.08089H11.2102V2.08089H13.5884V4.08089ZM11.2102 4.08089H10.7299V2.08089H11.2102V4.08089ZM10.7299 4.08089H8.12507V2.08089H10.7299V4.08089ZM8.12507 4.08089H6.88354V2.08089H8.12507V4.08089ZM6.88354 4.08089H0.976539V2.08089H6.88354V4.08089ZM0.976539 4.08089C0.982079 4.08089 0.989775 4.07962 0.997201 4.07666C1.00401 4.07395 1.00761 4.07104 1.00873 4.07002C1.01026 4.06862 1.00626 4.07176 1.0049 4.08192L-0.97756 3.81765C-0.851076 2.86883 -0.055965 2.08089 0.976539 2.08089V4.08089ZM0.570955 3.11946L9.90556 9.38452L8.79099 11.0452L-0.543612 4.78011L0.570955 3.11946ZM8.34827 10.2148V10.0207H10.3483V10.2148H8.34827ZM9.34827 9.02068H12.3652V11.0207H9.34827V9.02068ZM13.3652 10.0207V10.1544H11.3652V10.0207H13.3652ZM11.8111 9.32196L21.1449 3.10829L22.2532 4.77313L12.9194 10.9868L11.8111 9.32196Z" fill="white" mask="url(#path-3-inside-2_1996_103378)"/>
<mask id="path-5-inside-3_1996_103378" fill="white">
<path d="M0 4.3215V15.4924C0 16.0485 0.437062 16.498 0.976062 16.498H20.7372C21.2762 16.498 21.7125 16.0485 21.7125 15.4924V4.31169L12.3647 10.5352V12.3667H9.3478V10.5964L0 4.3215Z"/>
</mask>
<path d="M21.7125 4.31169L21.1583 3.47929L22.7125 2.44456V4.31169H21.7125ZM12.3647 10.5352H11.3647V9.99959L11.8105 9.70278L12.3647 10.5352ZM12.3647 12.3667H13.3647V13.3667H12.3647V12.3667ZM9.3478 12.3667V13.3667H8.3478V12.3667H9.3478ZM9.3478 10.5964L9.90514 9.76609L10.3478 10.0632V10.5964H9.3478ZM1 4.3215V15.4924H-1V4.3215H1ZM1 15.4924C1 15.4995 1.00125 15.503 1.00182 15.5044C1.00263 15.5064 1.00345 15.5072 1.00331 15.5071C1.00317 15.5069 1.0009 15.5047 0.995317 15.5022C0.992483 15.501 0.989125 15.4999 0.985425 15.4991C0.981659 15.4983 0.978395 15.498 0.976062 15.498V17.498C-0.142683 17.498 -1 16.5729 -1 15.4924H1ZM0.976062 15.498H20.7372V17.498H0.976062V15.498ZM20.7372 15.498C20.7349 15.498 20.7316 15.4983 20.7277 15.4991C20.724 15.4999 20.7205 15.501 20.7176 15.5023C20.7119 15.5048 20.7095 15.5072 20.7092 15.5075C20.709 15.5077 20.7098 15.5069 20.7106 15.5049C20.7112 15.5034 20.7125 15.4998 20.7125 15.4924H22.7125C22.7125 16.5719 21.8569 17.498 20.7372 17.498V15.498ZM20.7125 15.4924V4.31169H22.7125V15.4924H20.7125ZM22.2667 5.14408L12.9189 11.3676L11.8105 9.70278L21.1583 3.47929L22.2667 5.14408ZM13.3647 10.5352V12.3667H11.3647V10.5352H13.3647ZM12.3647 13.3667H9.3478V11.3667H12.3647V13.3667ZM8.3478 12.3667V10.5964H10.3478V12.3667H8.3478ZM8.79046 11.4267L-0.557342 5.15178L0.557342 3.49122L9.90514 9.76609L8.79046 11.4267Z" fill="white" mask="url(#path-5-inside-3_1996_103378)"/>
</svg>
