<svg width="60" height="60" viewBox="0 0 60 60" fill="none" xmlns="http://www.w3.org/2000/svg">
<circle cx="30" cy="30" r="30" fill="#F4A72A"/>
<path d="M27.7994 18.0516C27.1884 18.1756 26.5773 18.7213 26.402 19.3044C26.3598 19.4471 26.3234 19.751 26.3293 19.9804L26.3352 20.4022L24.4657 21.5495C23.4432 22.1819 22.5782 22.6968 22.5481 22.6968C22.5179 22.6968 22.4272 22.6286 22.3544 22.548C22.1487 22.3247 21.6526 22.1262 21.2654 22.1201C20.5092 22.1016 19.9162 22.4613 19.5774 23.131C19.3838 23.5092 19.3717 23.5653 19.3959 24.0301C19.4201 24.6192 19.5833 25.0037 19.9463 25.345C20.5633 25.9156 21.5193 26.0022 22.1726 25.5371L22.3361 25.4256L22.7172 25.7295C22.9288 25.8907 23.419 26.2628 23.8062 26.5604L24.5139 27.0938L24.7862 26.7341L25.0584 26.3744L23.9756 25.5434C22.8987 24.725 22.8866 24.7186 22.935 24.5265C22.9593 24.4274 22.9835 24.1544 22.9835 23.931V23.528L24.8831 22.3559C26.4499 21.3947 26.8008 21.2025 26.8794 21.2644C27.4056 21.655 27.8414 21.7977 28.3194 21.7419C29.7168 21.5744 30.4248 19.9559 29.608 18.8025C29.1906 18.2128 28.477 17.915 27.7994 18.0516Z" fill="white"/>
<path d="M34.0246 22.9385C33.4801 23.1121 33.0869 23.4718 32.8448 24.0176C32.7118 24.3152 32.6876 24.4455 32.7056 24.8115L32.7236 25.2518L31.6165 25.9339C30.8846 26.3867 30.5275 26.6349 30.5579 26.6842C30.5822 26.7276 30.6851 26.9012 30.7879 27.0749L30.9754 27.3973L32.0824 26.7152L33.1898 26.033L33.3533 26.1942C33.8555 26.6842 34.9322 26.7336 35.5311 26.2997L35.7005 26.1758L38.568 28.0858C40.8608 29.6112 41.4295 30.0145 41.4174 30.1136C41.3267 30.8145 41.4295 31.3415 41.7562 31.7818C42.0891 32.2221 42.5186 32.4455 43.0992 32.4827C43.5045 32.5076 43.6133 32.4891 43.8976 32.3588C44.3514 32.1479 44.6358 31.8688 44.8353 31.4533C44.9746 31.1618 45.0047 31.0191 44.9988 30.6349C44.9988 30.083 44.8415 29.6921 44.4723 29.3139C43.8855 28.7124 42.845 28.607 42.2038 29.0845L41.9679 29.2582L39.1004 27.3482C36.4806 25.6055 36.2329 25.4258 36.2631 25.2955C36.2811 25.2149 36.2932 24.9358 36.2932 24.6815C36.2932 24.2845 36.2631 24.1667 36.1117 23.8815C35.8879 23.4721 35.555 23.1682 35.1317 23.007C34.8051 22.8827 34.309 22.8518 34.0246 22.9385Z" fill="white"/>
<path d="M27.1338 26.1758C25.7364 26.4549 24.7198 27.9246 24.9377 29.351C25.1251 30.5913 26.0447 31.5401 27.2426 31.751C29.0577 32.061 30.6972 30.3804 30.3944 28.5201C30.1346 26.9386 28.6524 25.8719 27.1338 26.1758Z" fill="white"/>
<path d="M21.6771 29.965L19.5233 30.5232L19.136 30.1262C18.8274 29.8099 18.6763 29.7044 18.3919 29.6178C17.4664 29.3202 16.4137 29.8411 16.1113 30.7402C15.9841 31.1123 16.0084 31.7944 16.1597 32.1293C16.4622 32.8178 17.0067 33.1899 17.7629 33.2272C18.156 33.2459 18.2772 33.2272 18.5492 33.1032C18.7245 33.0166 18.9545 32.8738 19.0636 32.7808C19.2874 32.5884 19.6261 31.9311 19.6261 31.6956C19.6261 31.6087 19.6504 31.5035 19.6746 31.4662C19.6989 31.429 20.7332 31.1375 21.9736 30.8214C24.1275 30.2756 24.2301 30.2384 24.1999 30.1144C24.1757 30.0399 24.1334 29.8538 24.097 29.6865C24.0486 29.4756 24.0063 29.395 23.9339 29.4014C23.8792 29.4008 22.8628 29.655 21.6771 29.965Z" fill="white"/>
<path d="M30.7275 30.951C30.6066 31.1555 30.528 31.348 30.5522 31.3728C30.5824 31.4037 31.5204 32.0301 32.6396 32.7743L34.6723 34.1201L34.6179 34.3743C34.4848 34.9574 34.7027 35.658 35.1562 36.1046C36.0212 36.9604 37.4791 36.7125 38.0177 35.6146C38.2114 35.224 38.2536 34.5543 38.1144 34.1201C37.9752 33.7046 37.6062 33.2828 37.1888 33.0719C36.9045 32.9355 36.7593 32.9046 36.4146 32.9046C35.9851 32.9046 35.5254 33.0598 35.2895 33.2768C35.1925 33.3634 35.011 33.2519 33.1356 32.0116C32.0105 31.2674 31.0607 30.641 31.0243 30.6162C30.9815 30.5913 30.8606 30.7277 30.7275 30.951Z" fill="white"/>
<path d="M25.7121 32.8177C25.5971 33.134 25.089 34.4798 24.5929 35.8128L23.6916 38.2316L23.3286 38.2749C22.8024 38.3371 22.3909 38.5416 22.0822 38.8889C21.7556 39.261 21.6226 39.6392 21.6226 40.185C21.6226 40.5198 21.6589 40.6686 21.81 40.9789C22.0216 41.4131 22.2395 41.6301 22.7054 41.8471C22.9836 41.9774 23.0865 41.9959 23.5222 41.971C23.8246 41.9525 24.091 41.9028 24.2119 41.8346C24.5385 41.661 24.8894 41.3013 25.0588 40.9665C25.1918 40.6998 25.2223 40.5695 25.2223 40.154C25.2223 39.5774 25.0952 39.2362 24.7505 38.858C24.6234 38.7277 24.5267 38.5977 24.5267 38.5789C24.5267 38.5601 25.0289 37.2022 25.64 35.5649L26.7471 32.5943L26.3477 32.4207C26.1298 32.3277 25.9483 32.2471 25.9424 32.2471C25.9359 32.2471 25.833 32.5077 25.7121 32.8177Z" fill="white"/>
</svg>
