<svg width="21" height="22" viewBox="0 0 21 22" fill="none" xmlns="http://www.w3.org/2000/svg">
<mask id="path-1-inside-1_1878_105815" fill="white">
<path d="M0 0V16.9705H21V0H0ZM20.3226 16.2917H0.677419V0.678822H20.3226V16.2917Z"/>
</mask>
<path d="M0 0V-2H-2V0H0ZM0 16.9705H-2V18.9705H0V16.9705ZM21 16.9705V18.9705H23V16.9705H21ZM21 0H23V-2H21V0ZM20.3226 16.2917V18.2917H22.3226V16.2917H20.3226ZM0.677419 16.2917H-1.32258V18.2917H0.677419V16.2917ZM0.677419 0.678822V-1.32118H-1.32258V0.678822H0.677419ZM20.3226 0.678822H22.3226V-1.32118H20.3226V0.678822ZM-2 0V16.9705H2V0H-2ZM0 18.9705H21V14.9705H0V18.9705ZM23 16.9705V0H19V16.9705H23ZM21 -2H0V2H21V-2ZM20.3226 14.2917H0.677419V18.2917H20.3226V14.2917ZM2.67742 16.2917V0.678822H-1.32258V16.2917H2.67742ZM0.677419 2.67882H20.3226V-1.32118H0.677419V2.67882ZM18.3226 0.678822V16.2917H22.3226V0.678822H18.3226Z" fill="#515151" mask="url(#path-1-inside-1_1878_105815)"/>
<mask id="path-3-inside-2_1878_105815" fill="white">
<path d="M13.2096 1.35742H1.35474V8.82446H13.2096V1.35742ZM12.5322 8.14564H2.03216V2.03624H12.5322V8.14564Z"/>
</mask>
<path d="M13.2096 1.35742H15.2096V-0.642578H13.2096V1.35742ZM1.35474 1.35742V-0.642578H-0.645264V1.35742H1.35474ZM1.35474 8.82446H-0.645264V10.8245H1.35474V8.82446ZM13.2096 8.82446V10.8245H15.2096V8.82446H13.2096ZM12.5322 8.14564V10.1456H14.5322V8.14564H12.5322ZM2.03216 8.14564H0.0321558V10.1456H2.03216V8.14564ZM2.03216 2.03624V0.0362437H0.0321558V2.03624H2.03216ZM12.5322 2.03624H14.5322V0.0362437H12.5322V2.03624ZM13.2096 -0.642578H1.35474V3.35742H13.2096V-0.642578ZM-0.645264 1.35742V8.82446H3.35474V1.35742H-0.645264ZM1.35474 10.8245H13.2096V6.82446H1.35474V10.8245ZM15.2096 8.82446V1.35742H11.2096V8.82446H15.2096ZM12.5322 6.14564H2.03216V10.1456H12.5322V6.14564ZM4.03216 8.14564V2.03624H0.0321558V8.14564H4.03216ZM2.03216 4.03624H12.5322V0.0362437H2.03216V4.03624ZM10.5322 2.03624V8.14564H14.5322V2.03624H10.5322Z" fill="#515151" mask="url(#path-3-inside-2_1878_105815)"/>
<mask id="path-5-inside-3_1878_105815" fill="white">
<path d="M19.6453 1.35742H13.8872V2.03624H19.6453V1.35742Z"/>
</mask>
<path d="M13.8872 1.35742V-0.642578H11.8872V1.35742H13.8872ZM19.6453 1.35742H21.6453V-0.642578H19.6453V1.35742ZM19.6453 2.03624V4.03624H21.6453V2.03624H19.6453ZM13.8872 2.03624H11.8872V4.03624H13.8872V2.03624ZM13.8872 3.35742H19.6453V-0.642578H13.8872V3.35742ZM17.6453 1.35742V2.03624H21.6453V1.35742H17.6453ZM19.6453 0.0362437H13.8872V4.03624H19.6453V0.0362437ZM15.8872 2.03624V1.35742H11.8872V2.03624H15.8872Z" fill="#515151" mask="url(#path-5-inside-3_1878_105815)"/>
<mask id="path-7-inside-4_1878_105815" fill="white">
<path d="M19.6453 2.71484H13.8872V3.39367H19.6453V2.71484Z"/>
</mask>
<path d="M13.8872 2.71484V0.714844H11.8872V2.71484H13.8872ZM19.6453 2.71484H21.6453V0.714844H19.6453V2.71484ZM19.6453 3.39367V5.39367H21.6453V3.39367H19.6453ZM13.8872 3.39367H11.8872V5.39367H13.8872V3.39367ZM13.8872 4.71484H19.6453V0.714844H13.8872V4.71484ZM17.6453 2.71484V3.39367H21.6453V2.71484H17.6453ZM19.6453 1.39367H13.8872V5.39367H19.6453V1.39367ZM15.8872 3.39367V2.71484H11.8872V3.39367H15.8872Z" fill="#515151" mask="url(#path-7-inside-4_1878_105815)"/>
<mask id="path-9-inside-5_1878_105815" fill="white">
<path d="M19.6453 4.07324H13.8872V4.75206H19.6453V4.07324Z"/>
</mask>
<path d="M13.8872 4.07324V2.07324H11.8872V4.07324H13.8872ZM19.6453 4.07324H21.6453V2.07324H19.6453V4.07324ZM19.6453 4.75206V6.75206H21.6453V4.75206H19.6453ZM13.8872 4.75206H11.8872V6.75206H13.8872V4.75206ZM13.8872 6.07324H19.6453V2.07324H13.8872V6.07324ZM17.6453 4.07324V4.75206H21.6453V4.07324H17.6453ZM19.6453 2.75206H13.8872V6.75206H19.6453V2.75206ZM15.8872 4.75206V4.07324H11.8872V4.75206H15.8872Z" fill="#515151" mask="url(#path-9-inside-5_1878_105815)"/>
<mask id="path-11-inside-6_1878_105815" fill="white">
<path d="M19.6453 5.43066H13.8872V6.10949H19.6453V5.43066Z"/>
</mask>
<path d="M13.8872 5.43066V3.43066H11.8872V5.43066H13.8872ZM19.6453 5.43066H21.6453V3.43066H19.6453V5.43066ZM19.6453 6.10949V8.10949H21.6453V6.10949H19.6453ZM13.8872 6.10949H11.8872V8.10949H13.8872V6.10949ZM13.8872 7.43066H19.6453V3.43066H13.8872V7.43066ZM17.6453 5.43066V6.10949H21.6453V5.43066H17.6453ZM19.6453 4.10949H13.8872V8.10949H19.6453V4.10949ZM15.8872 6.10949V5.43066H11.8872V6.10949H15.8872Z" fill="#515151" mask="url(#path-11-inside-6_1878_105815)"/>
<mask id="path-13-inside-7_1878_105815" fill="white">
<path d="M19.6453 6.78809H13.8872V7.46691H19.6453V6.78809Z"/>
</mask>
<path d="M13.8872 6.78809V4.78809H11.8872V6.78809H13.8872ZM19.6453 6.78809H21.6453V4.78809H19.6453V6.78809ZM19.6453 7.46691V9.46691H21.6453V7.46691H19.6453ZM13.8872 7.46691H11.8872V9.46691H13.8872V7.46691ZM13.8872 8.78809H19.6453V4.78809H13.8872V8.78809ZM17.6453 6.78809V7.46691H21.6453V6.78809H17.6453ZM19.6453 5.46691H13.8872V9.46691H19.6453V5.46691ZM15.8872 7.46691V6.78809H11.8872V7.46691H15.8872Z" fill="#515151" mask="url(#path-13-inside-7_1878_105815)"/>
<mask id="path-15-inside-8_1878_105815" fill="white">
<path d="M19.6453 8.14551H13.8872V8.82433H19.6453V8.14551Z"/>
</mask>
<path d="M13.8872 8.14551V6.14551H11.8872V8.14551H13.8872ZM19.6453 8.14551H21.6453V6.14551H19.6453V8.14551ZM19.6453 8.82433V10.8243H21.6453V8.82433H19.6453ZM13.8872 8.82433H11.8872V10.8243H13.8872V8.82433ZM13.8872 10.1455H19.6453V6.14551H13.8872V10.1455ZM17.6453 8.14551V8.82433H21.6453V8.14551H17.6453ZM19.6453 6.82433H13.8872V10.8243H19.6453V6.82433ZM15.8872 8.82433V8.14551H11.8872V8.82433H15.8872Z" fill="#515151" mask="url(#path-15-inside-8_1878_105815)"/>
<mask id="path-17-inside-9_1878_105815" fill="white">
<path d="M7.1128 9.50391H1.35474V15.6133H7.1128V9.50391ZM6.43538 14.9345H2.03216V10.1827H6.43538V14.9345Z"/>
</mask>
<path d="M7.1128 9.50391H9.1128V7.50391H7.1128V9.50391ZM1.35474 9.50391V7.50391H-0.645264V9.50391H1.35474ZM1.35474 15.6133H-0.645264V17.6133H1.35474V15.6133ZM7.1128 15.6133V17.6133H9.1128V15.6133H7.1128ZM6.43538 14.9345V16.9345H8.43538V14.9345H6.43538ZM2.03216 14.9345H0.0321556V16.9345H2.03216V14.9345ZM2.03216 10.1827V8.18273H0.0321556V10.1827H2.03216ZM6.43538 10.1827H8.43538V8.18273H6.43538V10.1827ZM7.1128 7.50391H1.35474V11.5039H7.1128V7.50391ZM-0.645264 9.50391V15.6133H3.35474V9.50391H-0.645264ZM1.35474 17.6133H7.1128V13.6133H1.35474V17.6133ZM9.1128 15.6133V9.50391H5.1128V15.6133H9.1128ZM6.43538 12.9345H2.03216V16.9345H6.43538V12.9345ZM4.03216 14.9345V10.1827H0.0321556V14.9345H4.03216ZM2.03216 12.1827H6.43538V8.18273H2.03216V12.1827ZM4.43538 10.1827V14.9345H8.43538V10.1827H4.43538Z" fill="#515151" mask="url(#path-17-inside-9_1878_105815)"/>
<mask id="path-19-inside-10_1878_105815" fill="white">
<path d="M7.79028 15.6133H13.2096V9.50391H7.79028V15.6133ZM8.4677 10.1827H12.5322V14.9345H8.4677V10.1827Z"/>
</mask>
<path d="M7.79028 15.6133H5.79028V17.6133H7.79028V15.6133ZM13.2096 15.6133V17.6133H15.2096V15.6133H13.2096ZM13.2096 9.50391H15.2096V7.50391H13.2096V9.50391ZM7.79028 9.50391V7.50391H5.79028V9.50391H7.79028ZM8.4677 10.1827V8.18273H6.4677V10.1827H8.4677ZM12.5322 10.1827H14.5322V8.18273H12.5322V10.1827ZM12.5322 14.9345V16.9345H14.5322V14.9345H12.5322ZM8.4677 14.9345H6.4677V16.9345H8.4677V14.9345ZM7.79028 17.6133H13.2096V13.6133H7.79028V17.6133ZM15.2096 15.6133V9.50391H11.2096V15.6133H15.2096ZM13.2096 7.50391H7.79028V11.5039H13.2096V7.50391ZM5.79028 9.50391V15.6133H9.79028V9.50391H5.79028ZM8.4677 12.1827H12.5322V8.18273H8.4677V12.1827ZM10.5322 10.1827V14.9345H14.5322V10.1827H10.5322ZM12.5322 12.9345H8.4677V16.9345H12.5322V12.9345ZM10.4677 14.9345V10.1827H6.4677V14.9345H10.4677Z" fill="#515151" mask="url(#path-19-inside-10_1878_105815)"/>
<mask id="path-21-inside-11_1878_105815" fill="white">
<path d="M19.6453 9.50391H13.8872V15.6133H19.6453V9.50391ZM18.9679 14.9345H14.5646V10.1827H18.9679V14.9345Z"/>
</mask>
<path d="M19.6453 9.50391H21.6453V7.50391H19.6453V9.50391ZM13.8872 9.50391V7.50391H11.8872V9.50391H13.8872ZM13.8872 15.6133H11.8872V17.6133H13.8872V15.6133ZM19.6453 15.6133V17.6133H21.6453V15.6133H19.6453ZM18.9679 14.9345V16.9345H20.9679V14.9345H18.9679ZM14.5646 14.9345H12.5646V16.9345H14.5646V14.9345ZM14.5646 10.1827V8.18273H12.5646V10.1827H14.5646ZM18.9679 10.1827H20.9679V8.18273H18.9679V10.1827ZM19.6453 7.50391H13.8872V11.5039H19.6453V7.50391ZM11.8872 9.50391V15.6133H15.8872V9.50391H11.8872ZM13.8872 17.6133H19.6453V13.6133H13.8872V17.6133ZM21.6453 15.6133V9.50391H17.6453V15.6133H21.6453ZM18.9679 12.9345H14.5646V16.9345H18.9679V12.9345ZM16.5646 14.9345V10.1827H12.5646V14.9345H16.5646ZM14.5646 12.1827H18.9679V8.18273H14.5646V12.1827ZM16.9679 10.1827V14.9345H20.9679V10.1827H16.9679Z" fill="#515151" mask="url(#path-21-inside-11_1878_105815)"/>
<mask id="path-23-inside-12_1878_105815" fill="white">
<path d="M7.11291 7.4666C8.42033 7.4666 9.48388 6.40085 9.48388 5.09072C9.48388 3.78059 8.42033 2.71484 7.11291 2.71484C5.80549 2.71484 4.74194 3.78059 4.74194 5.09072C4.74194 6.40085 5.80549 7.4666 7.11291 7.4666ZM7.11291 3.39367C8.04673 3.39367 8.80646 4.15496 8.80646 5.09072C8.80646 6.02648 8.04673 6.78778 7.11291 6.78778C6.17909 6.78778 5.41936 6.02648 5.41936 5.09072C5.41936 4.15496 6.17909 3.39367 7.11291 3.39367Z"/>
</mask>
<path d="M7.11291 9.4666C9.5288 9.4666 11.4839 7.50151 11.4839 5.09072H7.48388C7.48388 5.30018 7.31186 5.4666 7.11291 5.4666V9.4666ZM11.4839 5.09072C11.4839 2.67993 9.5288 0.714844 7.11291 0.714844V4.71484C7.31186 4.71484 7.48388 4.88126 7.48388 5.09072H11.4839ZM7.11291 0.714844C4.69702 0.714844 2.74194 2.67993 2.74194 5.09072H6.74194C6.74194 4.88126 6.91396 4.71484 7.11291 4.71484V0.714844ZM2.74194 5.09072C2.74194 7.50151 4.69702 9.4666 7.11291 9.4666V5.4666C6.91396 5.4666 6.74194 5.30018 6.74194 5.09072H2.74194ZM7.11291 5.39367C6.93827 5.39367 6.80646 5.25563 6.80646 5.09072H10.8065C10.8065 3.0543 9.1552 1.39367 7.11291 1.39367V5.39367ZM6.80646 5.09072C6.80646 4.92581 6.93827 4.78778 7.11291 4.78778V8.78778C9.1552 8.78778 10.8065 7.12714 10.8065 5.09072H6.80646ZM7.11291 4.78778C7.28756 4.78778 7.41936 4.92581 7.41936 5.09072H3.41936C3.41936 7.12714 5.07062 8.78778 7.11291 8.78778V4.78778ZM7.41936 5.09072C7.41936 5.25563 7.28756 5.39367 7.11291 5.39367V1.39367C5.07062 1.39367 3.41936 3.0543 3.41936 5.09072H7.41936Z" fill="#515151" mask="url(#path-23-inside-12_1878_105815)"/>
<mask id="path-25-inside-13_1878_105815" fill="white">
<path d="M19.3064 18.6055H3.29696L0.333252 20.3025L3.29696 21.9996H19.3064C20.2402 21.9996 21 21.2383 21 20.3025C21 19.3668 20.2402 18.6055 19.3064 18.6055ZM3.38706 21.2692L1.69893 20.3025L3.38706 19.3359V21.2692ZM16.258 21.3208H4.06448V19.2843H16.258V21.3208ZM17.6129 21.3208H16.9354V19.2843H17.6129V21.3208ZM19.3064 21.3208H18.2903V19.2843H19.3064C19.8666 19.2843 20.3225 19.7411 20.3225 20.3025C20.3225 20.8639 19.8666 21.3208 19.3064 21.3208Z"/>
</mask>
<path d="M3.29696 18.6055V16.6055H2.76488L2.30314 16.8699L3.29696 18.6055ZM0.333252 20.3025L-0.660574 18.5669L-3.6916 20.3025L-0.660574 22.0381L0.333252 20.3025ZM3.29696 21.9996L2.30314 23.7352L2.76488 23.9996H3.29696V21.9996ZM3.38706 21.2692L2.39323 23.0048L5.38706 24.7191V21.2692H3.38706ZM1.69893 20.3025L0.705104 18.5669L-2.32592 20.3025L0.705104 22.0381L1.69893 20.3025ZM3.38706 19.3359H5.38706V15.886L2.39323 17.6003L3.38706 19.3359ZM16.258 21.3208V23.3208H18.258V21.3208H16.258ZM4.06448 21.3208H2.06448V23.3208H4.06448V21.3208ZM4.06448 19.2843V17.2843H2.06448V19.2843H4.06448ZM16.258 19.2843H18.258V17.2843H16.258V19.2843ZM17.6129 21.3208V23.3208H19.6129V21.3208H17.6129ZM16.9354 21.3208H14.9354V23.3208H16.9354V21.3208ZM16.9354 19.2843V17.2843H14.9354V19.2843H16.9354ZM17.6129 19.2843H19.6129V17.2843H17.6129V19.2843ZM18.2903 21.3208H16.2903V23.3208H18.2903V21.3208ZM18.2903 19.2843V17.2843H16.2903V19.2843H18.2903ZM19.3064 16.6055H3.29696V20.6055H19.3064V16.6055ZM2.30314 16.8699L-0.660574 18.5669L1.32708 22.0381L4.29079 20.3411L2.30314 16.8699ZM-0.660574 22.0381L2.30314 23.7352L4.29079 20.264L1.32708 18.5669L-0.660574 22.0381ZM3.29696 23.9996H19.3064V19.9996H3.29696V23.9996ZM19.3064 23.9996C21.3487 23.9996 23 22.3389 23 20.3025H19C19 20.1376 19.1318 19.9996 19.3064 19.9996V23.9996ZM23 20.3025C23 18.2661 21.3487 16.6055 19.3064 16.6055V20.6055C19.1318 20.6055 19 20.4674 19 20.3025H23ZM4.38088 19.5336L2.69275 18.5669L0.705104 22.0381L2.39323 23.0048L4.38088 19.5336ZM2.69275 22.0381L4.38088 21.0715L2.39323 17.6003L0.705104 18.5669L2.69275 22.0381ZM1.38706 19.3359V21.2692H5.38706V19.3359H1.38706ZM16.258 19.3208H4.06448V23.3208H16.258V19.3208ZM6.06448 21.3208V19.2843H2.06448V21.3208H6.06448ZM4.06448 21.2843H16.258V17.2843H4.06448V21.2843ZM14.258 19.2843V21.3208H18.258V19.2843H14.258ZM17.6129 19.3208H16.9354V23.3208H17.6129V19.3208ZM18.9354 21.3208V19.2843H14.9354V21.3208H18.9354ZM16.9354 21.2843H17.6129V17.2843H16.9354V21.2843ZM15.6129 19.2843V21.3208H19.6129V19.2843H15.6129ZM19.3064 19.3208H18.2903V23.3208H19.3064V19.3208ZM20.2903 21.3208V19.2843H16.2903V21.3208H20.2903ZM18.2903 21.2843H19.3064V17.2843H18.2903V21.2843ZM19.3064 21.2843C18.7582 21.2843 18.3225 20.8418 18.3225 20.3025H22.3225C22.3225 18.6405 20.9751 17.2843 19.3064 17.2843V21.2843ZM18.3225 20.3025C18.3225 19.7632 18.7582 19.3208 19.3064 19.3208V23.3208C20.9751 23.3208 22.3225 21.9646 22.3225 20.3025H18.3225Z" fill="#515151" mask="url(#path-25-inside-13_1878_105815)"/>
</svg>
