<svg width="22" height="22" viewBox="0 0 22 22" fill="none" xmlns="http://www.w3.org/2000/svg">
<path d="M10.8963 5.2907L11.3625 4.0935C12.202 1.93805 14.0335 0.500137 16.0929 0.500137C18.8907 0.500137 21.2954 3.18658 21.2954 6.65472C21.2954 7.39546 21.1836 8.10494 20.9798 8.76284L10.8963 5.2907ZM10.8963 5.2907L10.4306 4.09326M10.8963 5.2907L10.4306 4.09326M10.4306 4.09326C9.59253 1.93801 7.7605 0.500137 5.70325 0.500137M10.4306 4.09326L5.70325 0.500137M1.78413 10.6931L1.78362 10.6924C1.3604 10.1196 1.02402 9.45193 0.801971 8.71808L1.78413 10.6931ZM1.78413 10.6931C1.96457 10.9382 2.16006 11.1647 2.37064 11.3737L2.38436 11.3873M1.78413 10.6931L2.38436 11.3873M2.38436 11.3873L2.39699 11.4019M2.38436 11.3873L2.39699 11.4019M2.39699 11.4019L10.9116 21.2695L19.6106 11.186M2.39699 11.4019L19.6106 11.186M19.6106 11.186L19.7474 11.0258C20.2864 10.3947 20.7121 9.62585 20.9797 8.76298L19.6106 11.186ZM5.70325 0.500137C2.90338 0.500137 0.5 3.18654 0.5 6.65472M5.70325 0.500137L0.5 6.65472M0.5 6.65472C0.5 7.37876 0.606599 8.07226 0.801964 8.71806L0.5 6.65472Z" stroke="#515151"/>
</svg>
