<svg width="60" height="60" viewBox="0 0 60 60" fill="none" xmlns="http://www.w3.org/2000/svg">
<circle cx="30" cy="30" r="30" fill="#515151"/>
<path d="M34.6161 43.7466H30.1261L28.8264 36.6207C26.1727 36.8263 24.0781 39.1349 24.0781 41.9595V44.5596H40.6649V41.9595C40.6649 39.1349 38.5703 36.8263 35.9176 36.6207L34.6161 43.7466Z" fill="white"/>
<path d="M30.9639 43.7471H33.781L33.0819 38.9553H33.0575L33.744 37.6406H31L31.6864 38.9553H31.6621L30.9639 43.7471Z" fill="white"/>
<path d="M27.1889 24.272C26.0933 24.9482 24.6761 24.5559 24.0474 23.393C23.4567 22.3009 23.8099 20.8656 24.8315 20.2054C25.9198 19.5019 27.3415 19.8725 27.9891 21.0155C28.6295 22.1444 28.27 23.6024 27.1889 24.272ZM29.9392 23.0686C30.016 22.996 30.09 22.93 30.1551 22.879C30.4495 22.6489 31.3717 22.3056 31.5686 22.2896H31.5704C31.7086 22.2896 31.8622 22.3839 32.0437 22.5452C32.0564 22.2114 32.0446 21.8756 32.0067 21.5408L30.9915 21.2871C30.9382 21.0089 30.8632 20.7326 30.7675 20.461L31.5126 19.6943C31.4214 19.4877 31.3211 19.2849 31.2091 19.0869C31.0971 18.8888 30.9752 18.7002 30.8442 18.5182L29.8426 18.8304C29.661 18.6116 29.465 18.4107 29.2563 18.2287L29.5327 17.1771C29.175 16.9102 28.7921 16.6858 28.3929 16.5066L27.6739 17.3007C27.4138 17.2073 27.1482 17.1356 26.8791 17.0866L26.6135 16.0294C26.1809 15.9851 25.7428 15.9898 25.3075 16.0464L25.0627 17.1055C24.7962 17.1602 24.5325 17.2375 24.2724 17.3384L23.5371 16.5632C23.342 16.6556 23.1451 16.7594 22.9555 16.8772C22.7658 16.9942 22.5842 17.1215 22.4117 17.2564L22.7098 18.3041C22.5002 18.4937 22.306 18.6984 22.1335 18.9162L21.1273 18.6276C20.8708 19.0011 20.6559 19.4 20.4842 19.8168L21.2447 20.5685C21.1553 20.8391 21.0885 21.1173 21.0406 21.3974L20.029 21.6757C19.9866 22.1274 19.9901 22.5857 20.0434 23.0413L21.0587 23.294C21.1111 23.5732 21.1861 23.8486 21.28 24.1211L20.5375 24.8878C20.626 25.0944 20.7263 25.2962 20.8392 25.4933C20.9521 25.6923 21.074 25.8828 21.2023 26.0629L22.2049 25.7517C22.3873 25.9705 22.5842 26.1714 22.7929 26.3524L22.5165 27.4049C22.8742 27.6718 23.2544 27.8963 23.6546 28.0745L24.3744 27.2814C24.6354 27.3757 24.8992 27.4455 25.1692 27.4936L25.4348 28.5508C25.629 28.5706 25.8232 28.5791 26.0192 28.5791L26.0174 28.5461C26.0174 25.9535 27.673 23.7674 29.9392 23.0686Z" fill="white"/>
<path d="M26.0239 31.0221C26.0239 30.7279 26.2398 30.4874 26.5198 30.4403C26.5207 30.5544 26.5243 30.6656 26.527 30.7797C26.5044 30.9759 26.4864 31.1749 26.4864 31.3786C26.4864 31.6153 26.5053 31.8473 26.5324 32.0775C26.2452 32.035 26.0239 31.7889 26.0239 31.4899V31.0221ZM27.3968 30.6241C27.414 30.5091 27.4384 30.3969 27.4628 30.2856C28.1537 29.7735 29.0398 28.9756 29.3776 28.3476C29.3776 28.3476 34.9676 29.715 37.0044 29.8725C37.0622 29.8763 37.1174 29.8782 37.1706 29.8791C37.2456 30.1205 37.307 30.3695 37.3449 30.6241C37.3811 30.8712 37.4064 31.1221 37.4064 31.3786C37.4064 31.5616 37.3955 31.7436 37.3766 31.9209C37.344 32.2264 37.2826 32.5226 37.1986 32.8093C36.5817 34.9029 34.6515 36.4355 32.3709 36.4355C30.0893 36.4355 28.16 34.9029 27.5431 32.8093C27.4591 32.5226 27.3977 32.2264 27.3643 31.9209C27.3462 31.7436 27.3354 31.5616 27.3354 31.3786C27.3354 31.1221 27.3607 30.8712 27.3968 30.6241ZM38.2798 30.4544C38.5309 30.5242 38.7179 30.7486 38.7179 31.0221V31.4899C38.7179 31.7889 38.4957 32.035 38.2094 32.0775C38.2374 31.8473 38.2545 31.6153 38.2545 31.3786C38.2545 31.1504 38.2346 30.926 38.2066 30.7053C38.2319 30.6213 38.2581 30.5383 38.2798 30.4544ZM25.1758 31.0221V31.4899C25.1758 32.2878 25.8225 32.9357 26.6164 32.9357H26.7023C27.1349 34.5229 28.2115 35.8441 29.6296 36.6005C30.4488 37.0362 31.3801 37.2861 32.3709 37.2861C33.3617 37.2861 34.2939 37.0362 35.1122 36.6005C36.5303 35.8441 37.6069 34.5229 38.0395 32.9357H38.1253C38.9202 32.9357 39.566 32.2878 39.566 31.4899V31.0221C39.566 30.3309 39.0791 29.7537 38.4324 29.6103C38.455 29.4038 38.4713 29.1926 38.4713 28.9785L38.4685 28.9181C38.4694 28.7653 38.4641 28.6059 38.4451 28.4352V28.4343C38.3557 27.4478 38.0278 26.5349 37.5184 25.7588C37.2565 25.3579 36.9439 24.9977 36.5971 24.6799C35.665 23.8292 34.4592 23.3048 33.1323 23.2709L33.0655 23.2162C33.0086 23.1511 32.9453 23.1398 32.9038 23.1398C32.8035 23.1398 32.734 23.2077 32.678 23.2643H32.659C32.5533 23.1539 32.4567 23.0577 32.3655 22.9785C32.1839 22.8163 32.0304 22.723 31.8931 22.723H31.8913C31.6944 22.738 30.7713 23.0813 30.4759 23.3114C30.4109 23.3623 30.3377 23.4284 30.261 23.501C27.9948 24.2008 26.3401 26.3859 26.3401 28.9785L26.341 29.0124L26.3437 29.0964C26.341 29.2708 26.3464 29.4415 26.3626 29.6103C25.6906 29.7329 25.1758 30.3129 25.1758 31.0221Z" fill="white"/>
</svg>
