<svg width="26" height="22" viewBox="0 0 26 22" fill="none" xmlns="http://www.w3.org/2000/svg">
<path d="M24.9606 5.07378H25.2969V6.65265H25.2641H23.9895C24.5802 6.44417 24.9606 5.8259 24.9606 5.19117V5.07378ZM22.1441 5.19117C22.1441 5.82576 22.5245 6.44414 23.1152 6.65265H18.6271C19.2178 6.44415 19.5982 5.82579 19.5982 5.19117V5.07378H22.1441V5.19117ZM16.7817 5.19117C16.7817 5.82335 17.1547 6.44369 17.7493 6.65265H16.4781H16.4453V5.07378H16.7817V5.19117ZM25.2969 14.2101H23.8636L25.2969 12.5979V14.2101ZM19.1204 10.5307L20.0099 11.5449L20.3853 11.9729L20.7613 11.5455L22.7431 9.2925L22.9174 9.49179L20.3851 12.3704L18.9459 10.7296L19.1204 10.5307ZM5.3872 3.23074C5.3872 1.78176 6.3891 0.731445 7.51797 0.731445C8.6382 0.731445 9.64808 1.78229 9.64874 3.22931C9.63995 4.68961 8.62877 5.73003 7.51797 5.73003C6.39738 5.73003 5.3872 4.6785 5.3872 3.23074Z" stroke="#515151"/>
</svg>
