<svg width="18" height="18" viewBox="0 0 18 18" fill="none" xmlns="http://www.w3.org/2000/svg">
<mask id="path-1-inside-1_1878_103335" fill="white">
<path d="M17.7739 6.47679C17.716 6.31002 17.5738 6.19187 17.4063 6.17218L11.7944 5.49771L9.28497 0.257097C9.20887 0.100174 9.05376 -0.0001297 8.88693 -0.0001297C8.71893 -0.0001297 8.56439 0.100174 8.48946 0.257097L5.97356 5.51003L0.378632 6.39433C0.212973 6.42017 0.0742361 6.54326 0.0221386 6.71003C-0.0305443 6.87803 0.012779 7.06387 0.131023 7.18818L4.13609 11.3845L3.44068 17.1919C3.41961 17.3666 3.49513 17.5408 3.63386 17.6386C3.77317 17.7365 3.95522 17.7445 4.10098 17.6577L9.00224 14.7568L13.8778 17.6017C14.0247 17.6873 14.2056 17.6786 14.3443 17.5789C14.483 17.4799 14.5574 17.3057 14.5351 17.1309L13.7987 11.2645L17.6791 6.95924C17.795 6.83001 17.8313 6.64356 17.7739 6.47679Z"/>
</mask>
<path d="M17.4063 6.17218L17.2895 7.16534L17.287 7.16504L17.4063 6.17218ZM11.7944 5.49771L11.6751 6.49056L11.1297 6.42502L10.8925 5.92959L11.7944 5.49771ZM9.28497 0.257097L10.1848 -0.179245L10.1869 -0.174791L9.28497 0.257097ZM8.48946 0.257097L9.39187 0.687975L9.39135 0.68906L8.48946 0.257097ZM5.97356 5.51003L6.87545 5.94199L6.64854 6.41576L6.12968 6.49776L5.97356 5.51003ZM0.378632 6.39433L0.534748 7.38207L0.532787 7.38237L0.378632 6.39433ZM0.0221386 6.71003L0.976648 7.00821L0.976322 7.00925L0.0221386 6.71003ZM0.131023 7.18818L-0.592376 7.87861L-0.593535 7.87739L0.131023 7.18818ZM4.13609 11.3845L4.85949 10.6941L5.18506 11.0352L5.129 11.5034L4.13609 11.3845ZM3.44068 17.1919L4.43359 17.3108L4.43349 17.3116L3.44068 17.1919ZM3.63386 17.6386L3.05912 18.457L3.0575 18.4558L3.63386 17.6386ZM4.10098 17.6577L3.58945 16.7984L3.59164 16.7971L4.10098 17.6577ZM9.00224 14.7568L8.4929 13.8962L8.99864 13.5969L9.50623 13.8931L9.00224 14.7568ZM13.8778 17.6017L13.3746 18.4659L13.3738 18.4654L13.8778 17.6017ZM14.3443 17.5789L13.7607 16.7669L13.7631 16.7652L14.3443 17.5789ZM14.5351 17.1309L13.5431 17.2572L13.5429 17.2555L14.5351 17.1309ZM13.7987 11.2645L12.8065 11.389L12.7495 10.9349L13.0559 10.595L13.7987 11.2645ZM17.6791 6.95924L18.4236 7.62692L18.4219 7.62875L17.6791 6.95924ZM16.8293 6.80503C16.889 6.97672 17.0524 7.13744 17.2895 7.16533L17.5232 5.17903C18.0952 5.24631 18.543 5.64332 18.7185 6.14855L16.8293 6.80503ZM17.287 7.16504L11.6751 6.49056L11.9138 4.50485L17.5257 5.17933L17.287 7.16504ZM10.8925 5.92959L8.38304 0.688986L10.1869 -0.174791L12.6964 5.06582L10.8925 5.92959ZM8.38518 0.693434C8.46643 0.860968 8.64857 0.99987 8.88693 0.99987V-1.00013C9.45895 -1.00013 9.95131 -0.66062 10.1847 -0.179239L8.38518 0.693434ZM8.88693 0.99987C9.12313 0.99987 9.30906 0.86142 9.39187 0.687975L7.58705 -0.17378C7.81972 -0.661072 8.31473 -1.00013 8.88693 -1.00013V0.99987ZM9.39135 0.68906L6.87545 5.94199L5.07167 5.07806L7.58757 -0.174866L9.39135 0.68906ZM6.12968 6.49776L0.534747 7.38206L0.222516 5.40659L5.81745 4.52229L6.12968 6.49776ZM0.532787 7.38237C0.764484 7.34622 0.921609 7.18439 0.976648 7.00821L-0.93237 6.41184C-0.773136 5.90212 -0.338538 5.49412 0.224476 5.40628L0.532787 7.38237ZM0.976322 7.00925C1.03101 6.83486 0.990896 6.64122 0.855581 6.49897L-0.593535 7.87739C-0.965338 7.48653 -1.0921 6.9212 -0.932045 6.4108L0.976322 7.00925ZM0.854421 6.49775L4.85949 10.6941L3.41269 12.0749L-0.592375 7.87861L0.854421 6.49775ZM5.129 11.5034L4.43359 17.3108L2.44778 17.073L3.14318 11.2656L5.129 11.5034ZM4.43349 17.3116C4.45459 17.1366 4.38444 16.9443 4.21022 16.8214L3.0575 18.4558C2.60581 18.1373 2.38463 17.5967 2.44787 17.0722L4.43349 17.3116ZM4.2086 16.8203C4.03076 16.6954 3.78772 16.6804 3.58945 16.7984L4.6125 18.517C4.12272 18.8085 3.51558 18.7776 3.05912 18.457L4.2086 16.8203ZM3.59164 16.7971L8.4929 13.8962L9.51159 15.6174L4.61032 18.5183L3.59164 16.7971ZM9.50623 13.8931L14.3817 16.738L13.3738 18.4654L8.49826 15.6205L9.50623 13.8931ZM14.3809 16.7375C14.1863 16.6242 13.9416 16.6369 13.7607 16.7669L14.9278 18.391C14.4695 18.7204 13.8631 18.7503 13.3746 18.4659L14.3809 16.7375ZM13.7631 16.7652C13.5909 16.8881 13.5207 17.0811 13.5431 17.2572L15.5271 17.0047C15.594 17.5304 15.3751 18.0716 14.9255 18.3927L13.7631 16.7652ZM13.5429 17.2555L12.8065 11.389L14.7909 11.1399L15.5273 17.0064L13.5429 17.2555ZM13.0559 10.595L16.9363 6.28974L18.4219 7.62875L14.5415 11.934L13.0559 10.595ZM16.9347 6.29157C16.8019 6.43961 16.7709 6.63519 16.8283 6.80207L18.7196 6.15152C18.8917 6.65194 18.7881 7.22042 18.4236 7.62692L16.9347 6.29157Z" fill="white" mask="url(#path-1-inside-1_1878_103335)"/>
</svg>
