<svg width="14" height="3" viewBox="0 0 14 3" fill="none" xmlns="http://www.w3.org/2000/svg">
<path d="M7.00019 3.87504e-08C6.78029 3.45993e-08 6.56254 0.0387986 6.35937 0.114181C6.15621 0.189563 5.97161 0.300052 5.81611 0.43934C5.66062 0.578628 5.53727 0.743986 5.45312 0.925975C5.36897 1.10796 5.32565 1.30302 5.32565 1.5C5.32565 1.69698 5.36897 1.89204 5.45312 2.07403C5.53727 2.25601 5.66062 2.42137 5.81611 2.56066C5.97161 2.69995 6.15621 2.81044 6.35937 2.88582C6.56254 2.9612 6.78029 3 7.00019 3C7.4443 2.99991 7.87019 2.84179 8.18416 2.56042C8.49812 2.27905 8.67445 1.89748 8.67435 1.49966C8.67425 1.10183 8.49772 0.72034 8.18362 0.439099C7.86951 0.157858 7.44354 -9.0323e-05 6.99943 3.87504e-08H7.00019ZM1.67454 3.87504e-08C1.45463 3.45993e-08 1.23688 0.0387986 1.03372 0.114181C0.830555 0.189563 0.645956 0.300052 0.490461 0.43934C0.334965 0.578628 0.21162 0.743986 0.127467 0.925975C0.0433132 1.10796 0 1.30302 0 1.5C0 1.69698 0.0433132 1.89204 0.127467 2.07403C0.21162 2.25601 0.334965 2.42137 0.490461 2.56066C0.645956 2.69995 0.830555 2.81044 1.03372 2.88582C1.23688 2.9612 1.45463 3 1.67454 3C2.11865 2.99991 2.54454 2.84179 2.8585 2.56042C3.17247 2.27905 3.34879 1.89748 3.34869 1.49966C3.34859 1.10183 3.17207 0.72034 2.85796 0.439099C2.54386 0.157858 2.11789 -9.0323e-05 1.67378 3.87504e-08H1.67454ZM12.3258 3.87504e-08C12.1059 3.45993e-08 11.8882 0.0387986 11.685 0.114181C11.4819 0.189563 11.2973 0.300052 11.1418 0.43934C10.9863 0.578628 10.8629 0.743986 10.7788 0.925975C10.6946 1.10796 10.6513 1.30302 10.6513 1.5C10.6513 1.69698 10.6946 1.89204 10.7788 2.07403C10.8629 2.25601 10.9863 2.42137 11.1418 2.56066C11.2973 2.69995 11.4819 2.81044 11.685 2.88582C11.8882 2.9612 12.1059 3 12.3258 3C12.77 2.99991 13.1958 2.84179 13.5098 2.56042C13.8238 2.27905 14.0001 1.89748 14 1.49966C13.9999 1.10183 13.8234 0.72034 13.5093 0.439099C13.1952 0.157858 12.7692 -9.0323e-05 12.3251 3.87504e-08H12.3258Z" fill="#515151"/>
</svg>
