<svg width="22" height="22" viewBox="0 0 22 22" fill="none" xmlns="http://www.w3.org/2000/svg">
<path d="M20.3249 16.4992L20.3245 16.4988L20.3232 16.4975L6.72588 2.90008C6.53517 2.7094 6.15148 2.47033 5.61223 2.20854C5.08769 1.95388 4.46474 1.70045 3.83905 1.46779C2.5887 1.00286 1.35962 0.632713 0.953373 0.513374L20.3249 16.4992ZM20.3249 16.4992L20.3253 16.4996M20.3249 16.4992L20.3253 16.4996M20.3253 16.4996L20.3254 16.4998M20.3253 16.4996L20.3254 16.4998M20.3254 16.4998L20.3255 16.4998M20.3254 16.4998L20.3255 16.4998M20.3255 16.4998L20.3255 16.4998M20.3255 16.4998L20.3255 16.4998M20.3255 16.4998L20.3831 16.5574M20.3255 16.4998L20.3831 16.5574M20.3831 16.5574L20.7149 16.8892C21.2219 17.3963 21.5001 18.0679 21.5001 18.7851C21.5001 19.5022 21.2218 20.1739 20.7147 20.681L20.7141 20.6816L20.6816 20.7142C20.6814 20.7144 20.6813 20.7146 20.6811 20.7148C20.1736 21.222 19.5021 21.5 18.7853 21.5C18.0681 21.5 17.3965 21.2218 16.8894 20.7147L2.90031 6.72561C2.70961 6.53491 2.47053 6.15123 2.20873 5.61199C1.95407 5.08744 1.70064 4.4645 1.46798 3.83882C1.0031 2.58862 0.632986 1.35971 0.513528 0.953297C0.479803 0.838364 0.511451 0.714364 0.595923 0.629762L0.596229 0.629454M20.3831 16.5574L0.596229 0.629454M0.596229 0.629454L0.629633 0.595941C0.629652 0.595922 0.629671 0.595903 0.62969 0.595884M0.596229 0.629454L0.62969 0.595884M17.142 20.1451L17.5654 19.7216L19.722 17.5651L20.1454 17.1416L20.4865 17.6338C20.7194 17.9699 20.846 18.3685 20.846 18.7851V18.7852C20.8458 19.3256 20.6343 19.8362 20.2517 20.2187L20.2517 20.2188M17.142 20.1451L19.8982 19.8652L20.2517 20.2188M17.142 20.1451L17.6342 20.4861C17.9702 20.719 18.3687 20.8456 18.7854 20.8456C19.3258 20.8456 19.8364 20.6341 20.2185 20.2519L17.142 20.1451ZM20.2517 20.2188L20.2186 20.2519L20.2517 20.2188ZM0.62969 0.595884C0.629712 0.595861 0.629735 0.595838 0.629758 0.595815M0.62969 0.595884L0.629758 0.595815M0.629758 0.595815C0.71416 0.511287 0.837735 0.479461 0.953287 0.513349L0.629758 0.595815ZM19.2773 17.0841L19.6309 16.7306L19.2773 16.377L6.83066 3.93038L6.47711 3.57682L6.12355 3.93038L5.41703 4.63691L5.06347 4.99046L5.41703 5.34401L17.8637 17.7907L18.2172 18.1442L18.5708 17.7907L19.2773 17.0841ZM3.93051 6.12331L3.57696 6.47686L3.93052 6.83042L16.3773 19.2771L16.7308 19.6306L17.0844 19.2771L17.7909 18.5705L18.1445 18.217L17.7909 17.8634L5.34415 5.41678L4.99059 5.06323L4.63704 5.41678L3.93051 6.12331ZM5.51157 3.61685L6.01003 3.11839L5.37481 2.81274C4.60223 2.44099 3.42352 1.99539 2.23219 1.59972L1.28561 1.28534L1.6001 2.23189C1.99587 3.42308 2.44145 4.60174 2.81305 5.37438L3.11865 6.00977L3.6172 5.51122L5.51157 3.61685Z" stroke="#515151"/>
</svg>
